<mxfile host="app.diagrams.net" modified="2023-04-07T18:59:43.548Z" agent="Mozilla/5.0 (Windows NT 10.0; Win64; x64) AppleWebKit/537.36 (KHTML, like Gecko) Chrome/111.0.0.0 Safari/537.36" etag="eqlpyI_srlOPNCdwspwd" version="21.1.0" type="device">
  <diagram name="Page-1" id="74e2e168-ea6b-b213-b513-2b3c1d86103e">
    <mxGraphModel dx="1034" dy="381" grid="1" gridSize="10" guides="1" tooltips="1" connect="1" arrows="1" fold="1" page="1" pageScale="1" pageWidth="1100" pageHeight="850" background="none" math="0" shadow="0">
      <root>
        <mxCell id="0" />
        <mxCell id="1" parent="0" />
        <mxCell id="77e6c97f196da883-1" value="GPU-Enabled WXS Pipeline" style="swimlane;html=1;childLayout=stackLayout;startSize=20;rounded=0;shadow=0;labelBackgroundColor=none;strokeWidth=1;fontFamily=Verdana;fontSize=8;align=center;fillColor=#f5f5f5;fontColor=#333333;strokeColor=#666666;" parent="1" vertex="1">
          <mxGeometry x="110" y="40" width="640" height="360" as="geometry" />
        </mxCell>
        <mxCell id="77e6c97f196da883-4" value="&quot;GATKready&quot;" style="swimlane;html=1;startSize=20;" parent="77e6c97f196da883-1" vertex="1">
          <mxGeometry y="20" width="130" height="340" as="geometry" />
        </mxCell>
        <mxCell id="Nnj7Wq_yGs6EVmE-nwQ6-12" value="GATKready.cram" style="rounded=1;whiteSpace=wrap;html=1;shadow=0;labelBackgroundColor=none;strokeWidth=3;fontFamily=Verdana;fontSize=12;align=center;fillColor=#fff2cc;strokeColor=#d6b656;" parent="77e6c97f196da883-4" vertex="1">
          <mxGeometry x="20" y="33" width="100" height="30" as="geometry" />
        </mxCell>
        <mxCell id="Nnj7Wq_yGs6EVmE-nwQ6-62" value="Known Sites" style="shape=hexagon;perimeter=hexagonPerimeter2;whiteSpace=wrap;html=1;fixedSize=1;fillColor=#d5e8d4;strokeColor=#82b366;" parent="77e6c97f196da883-4" vertex="1">
          <mxGeometry x="5" y="180" width="120" height="40" as="geometry" />
        </mxCell>
        <mxCell id="Nnj7Wq_yGs6EVmE-nwQ6-56" value="Intervals File" style="shape=hexagon;perimeter=hexagonPerimeter2;whiteSpace=wrap;html=1;fixedSize=1;fillColor=#d5e8d4;strokeColor=#82b366;" parent="77e6c97f196da883-4" vertex="1">
          <mxGeometry x="5" y="280" width="120" height="40" as="geometry" />
        </mxCell>
        <mxCell id="Nnj7Wq_yGs6EVmE-nwQ6-55" value="Reference FASTA" style="shape=hexagon;perimeter=hexagonPerimeter2;whiteSpace=wrap;html=1;fixedSize=1;fillColor=#d5e8d4;strokeColor=#82b366;" parent="77e6c97f196da883-4" vertex="1">
          <mxGeometry x="5" y="230" width="120" height="40" as="geometry" />
        </mxCell>
        <mxCell id="77e6c97f196da883-5" value="BQSRing" style="swimlane;html=1;startSize=20;" parent="77e6c97f196da883-1" vertex="1">
          <mxGeometry x="130" y="20" width="130" height="340" as="geometry" />
        </mxCell>
        <mxCell id="Nnj7Wq_yGs6EVmE-nwQ6-36" style="edgeStyle=orthogonalEdgeStyle;rounded=1;orthogonalLoop=1;jettySize=auto;html=1;exitX=0.5;exitY=1;exitDx=0;exitDy=0;" parent="77e6c97f196da883-5" edge="1">
          <mxGeometry relative="1" as="geometry">
            <mxPoint x="80" y="203" as="sourcePoint" />
            <mxPoint x="80" y="203" as="targetPoint" />
          </mxGeometry>
        </mxCell>
        <mxCell id="Nnj7Wq_yGs6EVmE-nwQ6-17" value="BaseRecalibrator&lt;br&gt;Spark" style="rhombus;whiteSpace=wrap;html=1;rounded=0;shadow=0;labelBackgroundColor=none;strokeWidth=3;fontFamily=Verdana;fontSize=12;align=center;fillColor=#dae8fc;strokeColor=#6c8ebf;" parent="77e6c97f196da883-5" vertex="1">
          <mxGeometry x="10" y="68" width="110" height="70" as="geometry" />
        </mxCell>
        <mxCell id="77e6c97f196da883-6" value="BQSR" style="swimlane;html=1;startSize=20;" parent="77e6c97f196da883-1" vertex="1">
          <mxGeometry x="260" y="20" width="120" height="340" as="geometry" />
        </mxCell>
        <mxCell id="Nnj7Wq_yGs6EVmE-nwQ6-25" value="BQSR Report" style="rounded=1;whiteSpace=wrap;html=1;shadow=0;labelBackgroundColor=none;strokeWidth=3;fontFamily=Verdana;fontSize=12;align=center;fillColor=#ffe6cc;strokeColor=#d79b00;" parent="77e6c97f196da883-6" vertex="1">
          <mxGeometry x="10" y="88" width="100" height="30" as="geometry" />
        </mxCell>
        <mxCell id="Nnj7Wq_yGs6EVmE-nwQ6-19" value="" style="edgeStyle=orthogonalEdgeStyle;rounded=0;orthogonalLoop=1;jettySize=auto;html=1;fillColor=#f5f5f5;strokeColor=#999999;exitX=1;exitY=0.5;exitDx=0;exitDy=0;" parent="77e6c97f196da883-1" source="Nnj7Wq_yGs6EVmE-nwQ6-12" target="77e6c97f196da883-12" edge="1">
          <mxGeometry relative="1" as="geometry">
            <mxPoint x="475" y="68" as="sourcePoint" />
          </mxGeometry>
        </mxCell>
        <mxCell id="Nnj7Wq_yGs6EVmE-nwQ6-26" value="" style="edgeStyle=orthogonalEdgeStyle;rounded=0;orthogonalLoop=1;jettySize=auto;html=1;strokeWidth=3;" parent="77e6c97f196da883-1" source="Nnj7Wq_yGs6EVmE-nwQ6-17" target="Nnj7Wq_yGs6EVmE-nwQ6-25" edge="1">
          <mxGeometry relative="1" as="geometry" />
        </mxCell>
        <mxCell id="Nnj7Wq_yGs6EVmE-nwQ6-37" value="" style="edgeStyle=orthogonalEdgeStyle;rounded=1;orthogonalLoop=1;jettySize=auto;html=1;strokeWidth=3;" parent="77e6c97f196da883-1" source="Nnj7Wq_yGs6EVmE-nwQ6-33" target="77e6c97f196da883-15" edge="1">
          <mxGeometry relative="1" as="geometry" />
        </mxCell>
        <mxCell id="Nnj7Wq_yGs6EVmE-nwQ6-18" value="" style="edgeStyle=orthogonalEdgeStyle;rounded=1;orthogonalLoop=1;jettySize=auto;html=1;entryX=0;entryY=0.5;entryDx=0;entryDy=0;strokeWidth=3;" parent="77e6c97f196da883-1" source="Nnj7Wq_yGs6EVmE-nwQ6-12" target="Nnj7Wq_yGs6EVmE-nwQ6-17" edge="1">
          <mxGeometry relative="1" as="geometry">
            <Array as="points">
              <mxPoint x="70" y="123" />
            </Array>
          </mxGeometry>
        </mxCell>
        <mxCell id="77e6c97f196da883-7" value="Calling Variants" style="swimlane;html=1;startSize=20;" parent="77e6c97f196da883-1" vertex="1">
          <mxGeometry x="380" y="20" width="120" height="340" as="geometry" />
        </mxCell>
        <mxCell id="Nnj7Wq_yGs6EVmE-nwQ6-33" value="pbrun&lt;br&gt;HaplotypeCaller" style="rhombus;whiteSpace=wrap;html=1;rounded=0;shadow=0;labelBackgroundColor=none;strokeWidth=3;fontFamily=Verdana;fontSize=12;align=center;fillColor=#e1d5e7;strokeColor=#9673a6;" parent="77e6c97f196da883-7" vertex="1">
          <mxGeometry x="10" y="130" width="100" height="80" as="geometry" />
        </mxCell>
        <mxCell id="Nnj7Wq_yGs6EVmE-nwQ6-35" value="" style="endArrow=classic;html=1;rounded=1;exitX=0.5;exitY=1;exitDx=0;exitDy=0;entryX=0;entryY=0.5;entryDx=0;entryDy=0;strokeWidth=3;" parent="77e6c97f196da883-1" source="Nnj7Wq_yGs6EVmE-nwQ6-12" target="Nnj7Wq_yGs6EVmE-nwQ6-33" edge="1">
          <mxGeometry width="50" height="50" relative="1" as="geometry">
            <mxPoint x="310" y="173" as="sourcePoint" />
            <mxPoint x="190" y="313" as="targetPoint" />
            <Array as="points">
              <mxPoint x="70" y="190" />
              <mxPoint x="140" y="188" />
              <mxPoint x="300" y="188" />
            </Array>
          </mxGeometry>
        </mxCell>
        <mxCell id="Nnj7Wq_yGs6EVmE-nwQ6-34" value="" style="edgeStyle=orthogonalEdgeStyle;rounded=1;orthogonalLoop=1;jettySize=auto;html=1;strokeWidth=3;entryX=0.5;entryY=0;entryDx=0;entryDy=0;" parent="77e6c97f196da883-1" source="Nnj7Wq_yGs6EVmE-nwQ6-25" target="Nnj7Wq_yGs6EVmE-nwQ6-33" edge="1">
          <mxGeometry relative="1" as="geometry">
            <Array as="points">
              <mxPoint x="440" y="123" />
            </Array>
          </mxGeometry>
        </mxCell>
        <mxCell id="Nnj7Wq_yGs6EVmE-nwQ6-44" value="Outputs" style="swimlane;html=1;startSize=20;" parent="77e6c97f196da883-1" vertex="1">
          <mxGeometry x="500" y="20" width="140" height="340" as="geometry" />
        </mxCell>
        <mxCell id="77e6c97f196da883-15" value="Sample gVCF" style="rounded=1;whiteSpace=wrap;html=1;shadow=0;labelBackgroundColor=none;strokeWidth=3;fontFamily=Verdana;fontSize=12;align=center;fillColor=#ffe6cc;strokeColor=#d79b00;" parent="Nnj7Wq_yGs6EVmE-nwQ6-44" vertex="1">
          <mxGeometry x="20" y="153" width="100" height="30" as="geometry" />
        </mxCell>
        <mxCell id="77e6c97f196da883-12" value="GATKready.cram" style="rounded=1;whiteSpace=wrap;html=1;shadow=0;labelBackgroundColor=none;strokeWidth=1;fontFamily=Verdana;fontSize=12;align=center;fillColor=#ffe6cc;strokeColor=#d79b00;" parent="Nnj7Wq_yGs6EVmE-nwQ6-44" vertex="1">
          <mxGeometry x="20" y="28" width="100" height="40" as="geometry" />
        </mxCell>
        <mxCell id="Nnj7Wq_yGs6EVmE-nwQ6-61" value="" style="endArrow=classic;html=1;rounded=1;exitX=1;exitY=0.5;exitDx=0;exitDy=0;entryX=0.5;entryY=1;entryDx=0;entryDy=0;fillColor=#d5e8d4;strokeColor=#82b366;" parent="77e6c97f196da883-1" source="Nnj7Wq_yGs6EVmE-nwQ6-56" target="Nnj7Wq_yGs6EVmE-nwQ6-33" edge="1">
          <mxGeometry width="50" height="50" relative="1" as="geometry">
            <mxPoint x="290" y="173" as="sourcePoint" />
            <mxPoint x="340" y="123" as="targetPoint" />
            <Array as="points">
              <mxPoint x="440" y="320" />
              <mxPoint x="440" y="240" />
            </Array>
          </mxGeometry>
        </mxCell>
        <mxCell id="xKvOOhsYieL9IacCuS3Y-32" value="" style="edgeStyle=orthogonalEdgeStyle;rounded=1;orthogonalLoop=1;jettySize=auto;html=1;entryX=0;entryY=0.25;entryDx=0;entryDy=0;entryPerimeter=0;" parent="77e6c97f196da883-1" edge="1">
          <mxGeometry relative="1" as="geometry">
            <Array as="points">
              <mxPoint x="1010" y="160" />
            </Array>
            <mxPoint x="1020" y="160" as="targetPoint" />
          </mxGeometry>
        </mxCell>
        <mxCell id="xKvOOhsYieL9IacCuS3Y-133" value="" style="edgeStyle=orthogonalEdgeStyle;rounded=1;orthogonalLoop=1;jettySize=auto;html=1;" parent="77e6c97f196da883-1" edge="1">
          <mxGeometry relative="1" as="geometry">
            <mxPoint x="1460.0000000000005" y="100.00000000000011" as="targetPoint" />
          </mxGeometry>
        </mxCell>
        <mxCell id="xKvOOhsYieL9IacCuS3Y-134" value="" style="edgeStyle=orthogonalEdgeStyle;rounded=1;orthogonalLoop=1;jettySize=auto;html=1;" parent="77e6c97f196da883-1" edge="1">
          <mxGeometry relative="1" as="geometry">
            <mxPoint x="1460.0000000000005" y="180" as="targetPoint" />
          </mxGeometry>
        </mxCell>
        <mxCell id="xKvOOhsYieL9IacCuS3Y-135" value="" style="edgeStyle=orthogonalEdgeStyle;rounded=1;orthogonalLoop=1;jettySize=auto;html=1;" parent="77e6c97f196da883-1" edge="1">
          <mxGeometry relative="1" as="geometry">
            <mxPoint x="1460.0000000000005" y="260" as="targetPoint" />
          </mxGeometry>
        </mxCell>
        <mxCell id="xKvOOhsYieL9IacCuS3Y-140" value="" style="edgeStyle=orthogonalEdgeStyle;rounded=1;orthogonalLoop=1;jettySize=auto;html=1;" parent="77e6c97f196da883-1" edge="1">
          <mxGeometry relative="1" as="geometry">
            <mxPoint x="1560.0000000000005" y="100" as="sourcePoint" />
          </mxGeometry>
        </mxCell>
        <mxCell id="xKvOOhsYieL9IacCuS3Y-191" style="edgeStyle=orthogonalEdgeStyle;rounded=1;orthogonalLoop=1;jettySize=auto;html=1;exitX=1;exitY=0.5;exitDx=0;exitDy=0;entryX=0;entryY=0.5;entryDx=0;entryDy=0;" parent="77e6c97f196da883-1" edge="1">
          <mxGeometry relative="1" as="geometry">
            <Array as="points">
              <mxPoint x="1730" y="590" />
              <mxPoint x="1730" y="485" />
            </Array>
            <mxPoint x="1699.9999999999995" y="590" as="sourcePoint" />
          </mxGeometry>
        </mxCell>
        <mxCell id="Nnj7Wq_yGs6EVmE-nwQ6-63" value="" style="endArrow=classic;html=1;rounded=1;strokeColor=#82b366;strokeWidth=1;fillColor=#d5e8d4;entryX=0.5;entryY=1;entryDx=0;entryDy=0;exitX=1;exitY=0.5;exitDx=0;exitDy=0;" parent="77e6c97f196da883-1" source="Nnj7Wq_yGs6EVmE-nwQ6-62" target="Nnj7Wq_yGs6EVmE-nwQ6-17" edge="1">
          <mxGeometry width="50" height="50" relative="1" as="geometry">
            <mxPoint x="200" y="313" as="sourcePoint" />
            <mxPoint x="160" y="123" as="targetPoint" />
            <Array as="points">
              <mxPoint x="195" y="220" />
            </Array>
          </mxGeometry>
        </mxCell>
        <mxCell id="21NHwoR-wnRPgAmOzX4g-1" value="" style="endArrow=classic;html=1;rounded=1;strokeColor=#82b366;strokeWidth=1;fillColor=#d5e8d4;entryX=0.5;entryY=1;entryDx=0;entryDy=0;exitX=1;exitY=0.5;exitDx=0;exitDy=0;" parent="77e6c97f196da883-1" source="Nnj7Wq_yGs6EVmE-nwQ6-55" target="Nnj7Wq_yGs6EVmE-nwQ6-17" edge="1">
          <mxGeometry width="50" height="50" relative="1" as="geometry">
            <mxPoint x="210" y="240" as="sourcePoint" />
            <mxPoint x="280" y="128" as="targetPoint" />
            <Array as="points">
              <mxPoint x="195" y="270" />
            </Array>
          </mxGeometry>
        </mxCell>
        <mxCell id="21NHwoR-wnRPgAmOzX4g-2" value="" style="endArrow=classic;html=1;rounded=1;strokeColor=#82b366;strokeWidth=1;fillColor=#d5e8d4;entryX=0.5;entryY=1;entryDx=0;entryDy=0;exitX=1;exitY=0.5;exitDx=0;exitDy=0;" parent="77e6c97f196da883-1" source="Nnj7Wq_yGs6EVmE-nwQ6-55" target="Nnj7Wq_yGs6EVmE-nwQ6-33" edge="1">
          <mxGeometry width="50" height="50" relative="1" as="geometry">
            <mxPoint x="130" y="220" as="sourcePoint" />
            <mxPoint x="260" y="118" as="targetPoint" />
            <Array as="points">
              <mxPoint x="440" y="270" />
            </Array>
          </mxGeometry>
        </mxCell>
      </root>
    </mxGraphModel>
  </diagram>
</mxfile>
